<svg width="22" height="22" viewBox="0 0 22 22" fill="none" xmlns="http://www.w3.org/2000/svg">
<path d="M1.87647 22C1.35882 22 0.916667 21.8167 0.55 21.45C0.183333 21.0833 0 20.6412 0 20.1235V1.87647C0 1.35882 0.183333 0.916667 0.55 0.55C0.916667 0.183333 1.35882 0 1.87647 0H20.1235C20.6412 0 21.0833 0.183333 21.45 0.55C21.8167 0.916667 22 1.35882 22 1.87647V20.1235C22 20.6412 21.8167 21.0833 21.45 21.45C21.0833 21.8167 20.6412 22 20.1235 22H1.87647ZM1.87647 20.5441H20.1235C20.2529 20.5441 20.3554 20.5064 20.4309 20.4309C20.5064 20.3554 20.5441 20.2529 20.5441 20.1235V1.87647C20.5441 1.74706 20.5064 1.64461 20.4309 1.56912C20.3554 1.49363 20.2529 1.45588 20.1235 1.45588H1.87647C1.74706 1.45588 1.64461 1.49363 1.56912 1.56912C1.49363 1.64461 1.45588 1.74706 1.45588 1.87647V20.1235C1.45588 20.2529 1.49363 20.3554 1.56912 20.4309C1.64461 20.5064 1.74706 20.5441 1.87647 20.5441ZM5.07941 16.8118C5.07941 17.0327 5.2585 17.2118 5.47941 17.2118H6.16765C6.38856 17.2118 6.56765 17.0327 6.56765 16.8118V11.3353C6.56765 11.1144 6.38856 10.9353 6.16765 10.9353H5.47941C5.2585 10.9353 5.07941 11.1144 5.07941 11.3353V16.8118ZM15.4324 16.8118C15.4324 17.0327 15.6114 17.2118 15.8324 17.2118H16.5206C16.7415 17.2118 16.9206 17.0327 16.9206 16.8118V4.54118C16.9206 4.32026 16.7415 4.14118 16.5206 4.14118H15.8324C15.6114 4.14118 15.4324 4.32026 15.4324 4.54118V16.8118ZM10.2559 16.8118C10.2559 17.0327 10.435 17.2118 10.6559 17.2118H11.3441C11.565 17.2118 11.7441 17.0327 11.7441 16.8118V14.0853C11.7441 13.8644 11.565 13.6853 11.3441 13.6853H10.6559C10.435 13.6853 10.2559 13.8644 10.2559 14.0853V16.8118ZM10.2559 10.5353C10.2559 10.7562 10.435 10.9353 10.6559 10.9353H11.3441C11.565 10.9353 11.7441 10.7562 11.7441 10.5353V9.23235C11.7441 9.01144 11.565 8.83235 11.3441 8.83235H10.6559C10.435 8.83235 10.2559 9.01144 10.2559 9.23235V10.5353ZM1.45588 20.5441V20.4309C1.45588 20.3554 1.45588 20.2529 1.45588 20.1235V1.87647C1.45588 1.74706 1.45588 1.64461 1.45588 1.56912C1.45588 1.49363 1.45588 1.45588 1.45588 1.45588V1.56912C1.45588 1.64461 1.45588 1.74706 1.45588 1.87647V20.1235C1.45588 20.2529 1.45588 20.3554 1.45588 20.4309C1.45588 20.5064 1.45588 20.5441 1.45588 20.5441Z" fill="#1C1C1E"/>
</svg>
