<svg width="30" height="30" viewBox="0 0 30 30" fill="none" xmlns="http://www.w3.org/2000/svg">
<path d="M5.21053 23.9605C6.78947 22.8816 8.36184 22.0395 9.92763 21.4342C11.4934 20.8289 13.1842 20.5263 15 20.5263C16.8158 20.5263 18.5132 20.8289 20.0921 21.4342C21.6711 22.0395 23.25 22.8816 24.8289 23.9605C25.9605 22.6184 26.8092 21.2105 27.375 19.7368C27.9408 18.2632 28.2237 16.6842 28.2237 15C28.2237 11.2632 26.9539 8.125 24.4145 5.58553C21.875 3.04605 18.7368 1.77632 15 1.77632C11.2632 1.77632 8.125 3.04605 5.58553 5.58553C3.04605 8.125 1.77632 11.2632 1.77632 15C1.77632 16.6842 2.05921 18.2632 2.625 19.7368C3.19079 21.2105 4.05263 22.6184 5.21053 23.9605ZM15 15.9079C13.5789 15.9079 12.3816 15.4211 11.4079 14.4474C10.4342 13.4737 9.94737 12.2763 9.94737 10.8553C9.94737 9.43421 10.4342 8.23684 11.4079 7.26316C12.3816 6.28947 13.5789 5.80263 15 5.80263C16.4211 5.80263 17.6184 6.28947 18.5921 7.26316C19.5658 8.23684 20.0526 9.43421 20.0526 10.8553C20.0526 12.2763 19.5658 13.4737 18.5921 14.4474C17.6184 15.4211 16.4211 15.9079 15 15.9079ZM15 30C12.9211 30 10.9737 29.6053 9.1579 28.8158C7.34211 28.0263 5.75658 26.9539 4.40132 25.5987C3.04605 24.2434 1.97368 22.6579 1.18421 20.8421C0.394737 19.0263 0 17.0789 0 15C0 12.9211 0.394737 10.9737 1.18421 9.1579C1.97368 7.34211 3.04605 5.75658 4.40132 4.40132C5.75658 3.04605 7.34211 1.97368 9.1579 1.18421C10.9737 0.394737 12.9211 0 15 0C17.0789 0 19.0263 0.394737 20.8421 1.18421C22.6579 1.97368 24.2434 3.04605 25.5987 4.40132C26.9539 5.75658 28.0263 7.34211 28.8158 9.1579C29.6053 10.9737 30 12.9211 30 15C30 17.0789 29.6053 19.0263 28.8158 20.8421C28.0263 22.6579 26.9539 24.2434 25.5987 25.5987C24.2434 26.9539 22.6579 28.0263 20.8421 28.8158C19.0263 29.6053 17.0789 30 15 30ZM15 28.2237C16.4737 28.2237 17.9211 27.9868 19.3421 27.5132C20.7632 27.0395 22.1053 26.2895 23.3684 25.2632C22.1053 24.3158 20.7697 23.5921 19.3618 23.0921C17.9539 22.5921 16.5 22.3421 15 22.3421C13.5 22.3421 12.0395 22.5921 10.6184 23.0921C9.19737 23.5921 7.86842 24.3158 6.63158 25.2632C7.89474 26.2895 9.23684 27.0395 10.6579 27.5132C12.0789 27.9868 13.5263 28.2237 15 28.2237ZM15 14.0921C15.9474 14.0921 16.7237 13.7895 17.3289 13.1842C17.9342 12.5789 18.2368 11.8026 18.2368 10.8553C18.2368 9.9079 17.9342 9.13158 17.3289 8.52632C16.7237 7.92105 15.9474 7.61842 15 7.61842C14.0526 7.61842 13.2763 7.92105 12.6711 8.52632C12.0658 9.13158 11.7632 9.9079 11.7632 10.8553C11.7632 11.8026 12.0658 12.5789 12.6711 13.1842C13.2763 13.7895 14.0526 14.0921 15 14.0921Z" fill="#1C1C1E"/>
</svg>
