<svg width="22" height="22" viewBox="0 0 22 22" fill="none" xmlns="http://www.w3.org/2000/svg">
<path d="M10.2559 16.7471C10.2559 16.968 10.435 17.1471 10.6559 17.1471H11.3441C11.565 17.1471 11.7441 16.968 11.7441 16.7471V12.1441C11.7441 11.9232 11.9232 11.7441 12.1441 11.7441H16.7471C16.968 11.7441 17.1471 11.565 17.1471 11.3441V10.6559C17.1471 10.435 16.968 10.2559 16.7471 10.2559H12.1441C11.9232 10.2559 11.7441 10.0768 11.7441 9.85588V5.25294C11.7441 5.03203 11.565 4.85294 11.3441 4.85294H10.6559C10.435 4.85294 10.2559 5.03203 10.2559 5.25294V9.85588C10.2559 10.0768 10.0768 10.2559 9.85588 10.2559H5.25294C5.03203 10.2559 4.85294 10.435 4.85294 10.6559V11.3441C4.85294 11.565 5.03203 11.7441 5.25294 11.7441H9.85588C10.0768 11.7441 10.2559 11.9232 10.2559 12.1441V16.7471ZM1.87647 22C1.35882 22 0.916667 21.8167 0.55 21.45C0.183333 21.0833 0 20.6412 0 20.1235V1.87647C0 1.35882 0.183333 0.916667 0.55 0.55C0.916667 0.183333 1.35882 0 1.87647 0H20.1235C20.6412 0 21.0833 0.183333 21.45 0.55C21.8167 0.916667 22 1.35882 22 1.87647V20.1235C22 20.6412 21.8167 21.0833 21.45 21.45C21.0833 21.8167 20.6412 22 20.1235 22H1.87647ZM1.87647 20.5441H20.1235C20.2529 20.5441 20.3554 20.5064 20.4309 20.4309C20.5064 20.3554 20.5441 20.2529 20.5441 20.1235V1.87647C20.5441 1.74706 20.5064 1.64461 20.4309 1.56912C20.3554 1.49363 20.2529 1.45588 20.1235 1.45588H1.87647C1.74706 1.45588 1.64461 1.49363 1.56912 1.56912C1.49363 1.64461 1.45588 1.74706 1.45588 1.87647V20.1235C1.45588 20.2529 1.49363 20.3554 1.56912 20.4309C1.64461 20.5064 1.74706 20.5441 1.87647 20.5441Z" fill="#1C1C1E"/>
</svg>
